<?xml version="1.0" encoding="UTF-8" standalone="no"?>
<svg
   xmlns:dc="http://purl.org/dc/elements/1.1/"
   xmlns:cc="http://creativecommons.org/ns#"
   xmlns:rdf="http://www.w3.org/1999/02/22-rdf-syntax-ns#"
   xmlns:svg="http://www.w3.org/2000/svg"
   xmlns="http://www.w3.org/2000/svg"
   xmlns:xlink="http://www.w3.org/1999/xlink"
   xmlns:sodipodi="http://sodipodi.sourceforge.net/DTD/sodipodi-0.dtd"
   xmlns:inkscape="http://www.inkscape.org/namespaces/inkscape"
   width="800"
   height="800"
   viewBox="0 0 211.66666 211.66667"
   version="1.1"
   id="svg8"
   inkscape:version="1.0.1 (c497b03c, 2020-09-10)"
   sodipodi:docname="super.svg"
   inkscape:export-filename="/Users/k/STUFF/Helyx/Helyx Logo/portfolio.png"
   inkscape:export-xdpi="144"
   inkscape:export-ydpi="144">
  <defs
     id="defs2"><style
   id="style8"
   type="text/css"><![CDATA[
    .str0 {stroke:#2B2A29;stroke-width:7.62;stroke-miterlimit:22.9256}
    .fil5 {fill:none}
    .fil9 {fill:#FEFEFE}
    .fil4 {fill:#D9DADA}
    .fil3 {fill:#00A9EE}
    .fil7 {fill:#036DB9}
    .fil1 {fill:#063190}
    .fil6 {fill:#0C5371}
    .fil2 {fill:#752473}
    .fil0 {fill:#995CA1}
    .fil8 {fill:#06328B;fill-rule:nonzero}
   ]]></style>
<style
   type="text/css"
   id="style888"><![CDATA[
    .fil0 {fill:#00A0E3}
    .fil7 {fill:#036DB9}
    .fil1 {fill:#752473}
    .fil6 {fill:#00A0E3;fill-rule:nonzero}
    .fil5 {fill:url(#id0)}
    .fil2 {fill:url(#id1)}
    .fil3 {fill:url(#id2)}
    .fil4 {fill:url(#id3)}
   ]]></style>
<linearGradient
   id="id0"
   gradientUnits="userSpaceOnUse"
   x1="17461.869"
   y1="16050.38"
   x2="17461.869"
   y2="16879.619">
  <stop
     offset="0"
     style="stop-opacity:1; stop-color:#21638F"
     id="stop890" />
  <stop
     offset="1"
     style="stop-opacity:1; stop-color:#52C9F3"
     id="stop892" />
</linearGradient>
<linearGradient
   id="id1"
   gradientUnits="userSpaceOnUse"
   x1="17461.869"
   y1="13649.62"
   x2="17461.869"
   y2="12820.38">
  <stop
     offset="0"
     style="stop-opacity:1; stop-color:#752473"
     id="stop895" />
  <stop
     offset="1"
     style="stop-opacity:1; stop-color:#BE7BC7"
     id="stop897" />
</linearGradient>
<linearGradient
   id="id2"
   gradientUnits="userSpaceOnUse"
   xlink:href="#id1"
   x1="14906.1"
   y1="15955.99"
   x2="14906.1"
   y2="16785.23" />
<linearGradient
   id="id3"
   gradientUnits="userSpaceOnUse"
   xlink:href="#id0"
   x1="14906.09"
   y1="13649.62"
   x2="14906.09"
   y2="12820.38" />
<linearGradient
   y2="12820.38"
   x2="17461.869"
   y1="13649.62"
   x1="17461.869"
   gradientUnits="userSpaceOnUse"
   id="linearGradient1010"
   xlink:href="#id1"
   inkscape:collect="always" />
<linearGradient
   y2="16879.619"
   x2="17461.869"
   y1="16050.38"
   x1="17461.869"
   gradientUnits="userSpaceOnUse"
   id="linearGradient1016"
   xlink:href="#id0"
   inkscape:collect="always" />
<linearGradient
   inkscape:collect="always"
   xlink:href="#id1"
   id="linearGradient329"
   gradientUnits="userSpaceOnUse"
   x1="17461.869"
   y1="13649.62"
   x2="17461.869"
   y2="12820.38" />
<linearGradient
   inkscape:collect="always"
   xlink:href="#id1"
   id="linearGradient331"
   gradientUnits="userSpaceOnUse"
   x1="14906.1"
   y1="15955.99"
   x2="14906.1"
   y2="16785.23" />
<linearGradient
   inkscape:collect="always"
   xlink:href="#id0"
   id="linearGradient1009"
   x1="58.195724"
   y1="352.4162"
   x2="70.930588"
   y2="313.21866"
   gradientUnits="userSpaceOnUse" />
<linearGradient
   inkscape:collect="always"
   xlink:href="#id1"
   id="linearGradient999"
   gradientUnits="userSpaceOnUse"
   x1="17461.869"
   y1="13649.62"
   x2="17461.869"
   y2="12820.38" />
<linearGradient
   inkscape:collect="always"
   xlink:href="#id1"
   id="linearGradient1001"
   gradientUnits="userSpaceOnUse"
   x1="14906.1"
   y1="15955.99"
   x2="14906.1"
   y2="16785.23" />
<linearGradient
   inkscape:collect="always"
   xlink:href="#id0"
   id="linearGradient1003"
   gradientUnits="userSpaceOnUse"
   x1="14906.09"
   y1="13649.62"
   x2="14906.09"
   y2="12820.38" />
<linearGradient
   inkscape:collect="always"
   xlink:href="#id0"
   id="linearGradient1005"
   gradientUnits="userSpaceOnUse"
   x1="17461.869"
   y1="16050.38"
   x2="17461.869"
   y2="16879.619" />
<linearGradient
   inkscape:collect="always"
   xlink:href="#id1"
   id="linearGradient1007"
   gradientUnits="userSpaceOnUse"
   x1="17461.869"
   y1="13649.62"
   x2="17461.869"
   y2="12820.38" />
<linearGradient
   inkscape:collect="always"
   xlink:href="#id1"
   id="linearGradient1011"
   gradientUnits="userSpaceOnUse"
   x1="14906.1"
   y1="15955.99"
   x2="14906.1"
   y2="16785.23" />
<linearGradient
   inkscape:collect="always"
   xlink:href="#id0"
   id="linearGradient1013"
   gradientUnits="userSpaceOnUse"
   x1="14906.09"
   y1="13649.62"
   x2="14906.09"
   y2="12820.38" />
<linearGradient
   inkscape:collect="always"
   xlink:href="#id0"
   id="linearGradient1015"
   gradientUnits="userSpaceOnUse"
   x1="58.195724"
   y1="352.4162"
   x2="70.930588"
   y2="313.21866" />
<linearGradient
   inkscape:collect="always"
   xlink:href="#id1"
   id="linearGradient1017"
   gradientUnits="userSpaceOnUse"
   x1="14906.1"
   y1="15955.99"
   x2="14906.1"
   y2="16785.23" />
<linearGradient
   inkscape:collect="always"
   xlink:href="#id1"
   id="linearGradient1019"
   gradientUnits="userSpaceOnUse"
   x1="17461.869"
   y1="13649.62"
   x2="17461.869"
   y2="12820.38" />
<style
   type="text/css"
   id="style1048">
   <![CDATA[
    .fil0 {fill:#00A0E3}
    .fil7 {fill:#036DB9}
    .fil1 {fill:#752473}
    .fil6 {fill:#00A0E3;fill-rule:nonzero}
    .fil5 {fill:url(#id0)}
    .fil2 {fill:url(#id1)}
    .fil3 {fill:url(#id2)}
    .fil4 {fill:url(#id3)}
   ]]>
  </style>
<linearGradient
   inkscape:collect="always"
   xlink:href="#id1"
   id="linearGradient1103"
   gradientUnits="userSpaceOnUse"
   x1="17461.869"
   y1="13649.62"
   x2="17461.869"
   y2="12820.38" />
<linearGradient
   inkscape:collect="always"
   xlink:href="#id1"
   id="linearGradient1105"
   gradientUnits="userSpaceOnUse"
   x1="14906.1"
   y1="15955.99"
   x2="14906.1"
   y2="16785.23" />
<linearGradient
   inkscape:collect="always"
   xlink:href="#id0"
   id="linearGradient1107"
   gradientUnits="userSpaceOnUse"
   x1="14906.09"
   y1="13649.62"
   x2="14906.09"
   y2="12820.38" />
<linearGradient
   inkscape:collect="always"
   xlink:href="#id0"
   id="linearGradient1109"
   gradientUnits="userSpaceOnUse"
   x1="17461.869"
   y1="16050.38"
   x2="17461.869"
   y2="16879.619" />

  
  
 
   
   
   
   
   
   
   
   
  </defs>
  <sodipodi:namedview
     id="base"
     pagecolor="#ffffff"
     bordercolor="#666666"
     borderopacity="1.0"
     inkscape:pageopacity="0.0"
     inkscape:pageshadow="2"
     inkscape:zoom="0.50383782"
     inkscape:cx="263.18624"
     inkscape:cy="601.32255"
     inkscape:document-units="px"
     inkscape:current-layer="layer1"
     inkscape:document-rotation="0"
     showgrid="false"
     units="px"
     fit-margin-top="0"
     fit-margin-left="0"
     fit-margin-right="0"
     fit-margin-bottom="0"
     inkscape:window-width="1252"
     inkscape:window-height="802"
     inkscape:window-x="0"
     inkscape:window-y="23"
     inkscape:window-maximized="0"
     showguides="true"
     inkscape:guide-bbox="true" />
  <metadata
     id="metadata5">
    <rdf:RDF>
      <cc:Work
         rdf:about="">
        <dc:format>image/svg+xml</dc:format>
        <dc:type
           rdf:resource="http://purl.org/dc/dcmitype/StillImage" />
        <dc:title />
      </cc:Work>
    </rdf:RDF>
  </metadata>
  <g
     inkscape:label="Layer 1"
     inkscape:groupmode="layer"
     id="layer1"
     transform="translate(0.83333008,-42.66667)">
    <rect
       y="44.626549"
       x="-299.71451"
       height="211.66666"
       width="211.66666"
       id="rect1018"
       style="clip-rule:evenodd;opacity:0.157556;fill:#d5dafd;fill-opacity:1;fill-rule:evenodd;stroke-width:0.28651;image-rendering:optimizeQuality;shape-rendering:geometricPrecision;text-rendering:geometricPrecision" />
    <g
       id="g435"
       transform="translate(-212.68004,134.43479)">
      <g
         id="Слой_x0020_1"
         transform="matrix(0.01351845,0,0,0.01351845,-36.847268,-52.24898)"
         style="clip-rule:evenodd;fill-rule:evenodd;image-rendering:optimizeQuality;shape-rendering:geometricPrecision;text-rendering:geometricPrecision">
        <metadata
           id="CorelCorpID_0Corel-Layer" />
        <g
           id="_746177440">
          <polygon
             class="fil0"
             points="6120.98,13132.34 6120.98,14766.98 6821.6,15238.01 6821.6,13067.22 "
             id="polygon13" />
          <polygon
             class="fil1"
             points="17569.57,12159.07 16565.52,12333.98 15519.35,14145.46 15967.38,14856.93 17669.61,12139.65 "
             id="polygon15" />
          <polygon
             class="fil2"
             points="15427.62,15718.43 15025.2,15007.14 14110.13,16602.82 14873.6,16602.82 "
             id="polygon17"
             style="fill:url(#linearGradient329)" />
          <polygon
             class="fil0"
             points="15026.02,14723.92 15434.79,14011.21 14850.8,13081.54 14059.8,13006.79 "
             id="polygon19" />
          <polygon
             class="fil3"
             points="17669.61,17560.13 15967.38,14856.93 15512.28,15583.31 16541.95,17361.7 "
             id="polygon21"
             style="fill:url(#linearGradient331)" />
          <polygon
             class="fil4"
             points="15106.28,14865.73 15512.28,15583.31 15967.38,14856.93 15519.35,14145.46 "
             id="polygon23"
             style="fill:url(#id3)" />
          <line
             class="fil5 str0"
             x1="15106.28"
             y1="14865.73"
             x2="15967.38"
             y2="14856.93"
             id="line25"
             style="fill:url(#linearGradient1016)" />
          <polygon
             class="fil6"
             points="15512.28,15583.31 15967.38,14856.93 15106.28,14865.73 "
             id="polygon27" />
          <polygon
             class="fil7"
             points="15519.35,14145.46 15106.28,14865.73 15967.38,14856.93 "
             id="polygon29" />
          <path
             class="fil8"
             d="m 7248.08,16602.82 v -2767.58 h 2048.59 v 467.69 H 7808.52 v 614.62 h 1383.79 v 467.69 H 7808.52 v 749.89 H 9350.8 v 467.69 z m 2593.64,0 v -2744.41 h 560.44 v 2276.72 h 1387.68 v 467.69 z m 2717.34,0 v -1164.77 l -1014.65,-1602.81 h 655.16 l 654.56,1095.84 637.14,-1095.84 h 642.94 l -1014.65,1606.7 v 1160.88 z"
             id="path31" />
          <polygon
             class="fil3"
             points="4002.59,12136.44 4002.59,17564.62 4860.44,17407.07 4860.44,12284.83 "
             id="polygon33"
             style="fill:url(#id2)" />
          <polygon
             class="fil2"
             points="6120.99,15396.55 6120.99,16607.61 6821.6,16602.46 6821.6,15360.76 "
             id="polygon35"
             style="fill:url(#linearGradient1010)" />
          <polygon
             class="fil1"
             points="4002.59,14897.37 4002.59,15507.8 6821.6,15360.76 6120.99,14897.37 4972.34,14897.37 "
             id="polygon37" />
          <polygon
             class="fil6"
             points="6821.6,15360.76 6120.99,15396.55 6120.99,14897.37 "
             id="polygon39" />
          <polygon
             class="fil7"
             points="4860.44,14897.37 4859.62,15462.75 4002.59,15507.8 4002.59,14897.37 "
             id="polygon41" />
          <polygon
             class="fil1"
             points="4002.59,14897.37 4002.59,15507.12 3316.12,15543.85 "
             id="polygon43" />
          <rect
             class="fil9"
             x="3796.6399"
             y="14803.18"
             width="1175.6899"
             height="94.190002"
             id="rect45" />
        </g>
      </g>
      <text
         xml:space="preserve"
         style="font-style:normal;font-weight:normal;font-size:12.5064px;line-height:1.25;font-family:sans-serif;clip-rule:evenodd;fill:#0c5371;fill-opacity:1;fill-rule:evenodd;stroke:none;stroke-width:0.31266;image-rendering:optimizeQuality;shape-rendering:geometricPrecision;text-rendering:geometricPrecision"
         x="47.594601"
         y="212.5433"
         id="text55"
         transform="scale(1.143974,0.87414576)"><tspan
           sodipodi:role="line"
           id="tspan53"
           style="font-style:normal;font-variant:normal;font-weight:normal;font-stretch:normal;font-family:Roboto;-inkscape-font-specification:Roboto;fill:#0c5371;fill-opacity:1;stroke-width:0.31266"
           x="47.594601"
           y="212.5433">www.helyx.ml</tspan></text>
    </g>
    <g
       id="g997">
      <g
         id="g957"
         transform="matrix(0.03308667,0,0,0.03308667,217.30741,-587.51096)"
         style="clip-rule:evenodd;opacity:0.157556;fill-rule:evenodd;image-rendering:optimizeQuality;shape-rendering:geometricPrecision;text-rendering:geometricPrecision">
        <polygon
           style="clip-rule:evenodd;fill-rule:evenodd;image-rendering:optimizeQuality;shape-rendering:geometricPrecision;text-rendering:geometricPrecision"
           class="fil0"
           points="14582.82,14290.82 15328.36,14804.17 14582.82,15316.29 14582.82,16400.94 16116.26,15346.52 17785.17,16495.32 17785.17,15409.42 16905.87,14804.17 17785.17,14200.02 17785.17,13204.67 16117.94,14261.08 14582.82,13204.67 "
           id="polygon943"
           transform="translate(-19578.335,7394.9393)" />
        <polygon
           style="clip-rule:evenodd;fill-rule:evenodd;image-rendering:optimizeQuality;shape-rendering:geometricPrecision;text-rendering:geometricPrecision"
           class="fil1"
           points="16905.87,14804.17 17785.17,14200.02 17785.17,13204.68 17138.59,13614.36 16118.01,14261.03 15328.36,14804.17 14582.82,15316.29 14582.82,16400.93 15229.39,15955.99 15229.39,15956.35 16116.26,15346.52 16911.58,14808.1 "
           id="polygon945"
           transform="translate(-19578.335,7394.9393)" />
        <polygon
           style="clip-rule:evenodd;fill:url(#linearGradient999);fill-rule:evenodd;image-rendering:optimizeQuality;shape-rendering:geometricPrecision;text-rendering:geometricPrecision"
           class="fil2"
           points="17138.59,13649.62 17138.59,13170.9 17138.59,13086.74 17138.59,12820.38 17785.17,13204.68 "
           id="polygon947"
           transform="translate(-19578.335,7394.9393)" />
        <polygon
           style="clip-rule:evenodd;fill:url(#linearGradient1001);fill-rule:evenodd;image-rendering:optimizeQuality;shape-rendering:geometricPrecision;text-rendering:geometricPrecision"
           class="fil3"
           points="15229.4,15955.99 15229.4,16434.71 15229.4,16518.87 15229.4,16785.23 14582.82,16400.93 "
           id="polygon949"
           transform="translate(-19578.335,7394.9393)" />
        <polygon
           style="clip-rule:evenodd;fill:url(#linearGradient1003);fill-rule:evenodd;image-rendering:optimizeQuality;shape-rendering:geometricPrecision;text-rendering:geometricPrecision"
           class="fil4"
           points="15229.39,13649.62 15229.39,13170.9 15229.39,13086.74 15229.39,12820.38 14582.82,13204.68 "
           id="polygon951"
           transform="translate(-19578.335,7394.9393)" />
        <polygon
           style="clip-rule:evenodd;fill:url(#linearGradient1005);fill-rule:evenodd;image-rendering:optimizeQuality;shape-rendering:geometricPrecision;text-rendering:geometricPrecision"
           class="fil5"
           points="17138.59,16050.38 17138.59,16529.1 17138.59,16613.26 17138.59,16879.62 17785.17,16495.32 "
           id="polygon953"
           transform="translate(-19578.335,7394.9393)" />
        <polygon
           style="clip-rule:evenodd;fill-rule:evenodd;image-rendering:optimizeQuality;shape-rendering:geometricPrecision;text-rendering:geometricPrecision"
           class="fil7"
           points="16911.58,14808.1 16116.26,15346.52 15328.36,14804.17 16118.01,14261.03 "
           id="polygon955"
           transform="translate(-19578.335,7394.9393)" />
      </g>
      <g
         id="g991"
         transform="translate(2.9398146,-198.93463)">
        <polygon
           class="fil0"
           points="6821.6,13067.22 6120.98,13132.34 6120.98,14766.98 6821.6,15238.01 "
           id="polygon959"
           style="clip-rule:evenodd;fill-rule:evenodd;image-rendering:optimizeQuality;shape-rendering:geometricPrecision;text-rendering:geometricPrecision"
           transform="matrix(0.01351845,0,0,0.01351845,-39.787083,146.67849)" />
        <polygon
           class="fil1"
           points="17569.57,12159.07 16565.52,12333.98 15519.35,14145.46 15967.38,14856.93 17669.61,12139.65 "
           id="polygon961"
           style="clip-rule:evenodd;fill-rule:evenodd;image-rendering:optimizeQuality;shape-rendering:geometricPrecision;text-rendering:geometricPrecision"
           transform="matrix(0.01351845,0,0,0.01351845,-39.787083,146.67849)" />
        <polygon
           class="fil2"
           points="14873.6,16602.82 15427.62,15718.43 15025.2,15007.14 14110.13,16602.82 "
           id="polygon963"
           style="clip-rule:evenodd;fill:url(#linearGradient1007);fill-rule:evenodd;image-rendering:optimizeQuality;shape-rendering:geometricPrecision;text-rendering:geometricPrecision"
           transform="matrix(0.01351845,0,0,0.01351845,-39.787083,146.67849)" />
        <polygon
           class="fil0"
           points="14059.8,13006.79 15026.02,14723.92 15434.79,14011.21 14850.8,13081.54 "
           id="polygon965"
           style="clip-rule:evenodd;fill-rule:evenodd;image-rendering:optimizeQuality;shape-rendering:geometricPrecision;text-rendering:geometricPrecision"
           transform="matrix(0.01351845,0,0,0.01351845,-39.787083,146.67849)" />
        <polygon
           class="fil7"
           points="15519.35,14145.46 15106.28,14865.73 15967.38,14856.93 "
           id="polygon967"
           style="clip-rule:evenodd;fill-rule:evenodd;image-rendering:optimizeQuality;shape-rendering:geometricPrecision;text-rendering:geometricPrecision"
           transform="matrix(0.01351845,0,0,0.01351845,-39.787083,146.67849)" />
        <polygon
           class="fil3"
           points="16541.95,17361.7 17669.61,17560.13 15967.38,14856.93 15512.28,15583.31 "
           id="polygon969"
           style="clip-rule:evenodd;fill:url(#linearGradient1011);fill-rule:evenodd;image-rendering:optimizeQuality;shape-rendering:geometricPrecision;text-rendering:geometricPrecision"
           transform="matrix(0.01351845,0,0,0.01351845,-39.787083,146.67849)" />
        <polygon
           class="fil4"
           points="15519.35,14145.46 15106.28,14865.73 15512.28,15583.31 15967.38,14856.93 "
           id="polygon971"
           style="clip-rule:evenodd;fill:url(#linearGradient1013);fill-rule:evenodd;image-rendering:optimizeQuality;shape-rendering:geometricPrecision;text-rendering:geometricPrecision"
           transform="matrix(0.01351845,0,0,0.01351845,-39.787083,146.67849)" />
        <polygon
           class="fil6"
           points="15512.28,15583.31 15967.38,14856.93 15106.28,14865.73 "
           id="polygon973"
           style="clip-rule:evenodd;image-rendering:optimizeQuality;shape-rendering:geometricPrecision;text-rendering:geometricPrecision"
           transform="matrix(0.01351845,0,0,0.01351845,-39.787083,146.67849)" />
        <path
           class="fil8"
           d="m 58.195724,371.12288 v -37.41339 h 27.693762 v 6.32244 H 65.772004 v 8.30871 H 84.4787 v 6.32245 H 65.772004 v 10.13735 h 20.849235 v 6.32244 z m 35.061993,0 V 334.02271 H 100.834 v 30.77773 h 18.75928 v 6.32244 z m 36.734223,0 V 355.377 l -13.71649,-21.66751 h 8.85674 l 8.84864,14.81406 8.61315,-14.81406 h 8.69155 l -13.7165,21.72009 v 15.6933 z"
           id="path975"
           style="clip-rule:evenodd;fill:url(#linearGradient1015);fill-opacity:1;stroke-width:0.0135184;image-rendering:optimizeQuality;shape-rendering:geometricPrecision;text-rendering:geometricPrecision" />
        <polygon
           class="fil3"
           points="4860.44,12284.83 4002.59,12136.44 4002.59,17564.62 4860.44,17407.07 "
           id="polygon977"
           style="clip-rule:evenodd;fill:url(#linearGradient1017);fill-rule:evenodd;image-rendering:optimizeQuality;shape-rendering:geometricPrecision;text-rendering:geometricPrecision"
           transform="matrix(0.01351845,0,0,0.01351845,-39.787083,146.67849)" />
        <polygon
           class="fil2"
           points="6821.6,15360.76 6120.99,15396.55 6120.99,16607.61 6821.6,16602.46 "
           id="polygon979"
           style="clip-rule:evenodd;fill:url(#linearGradient1019);fill-rule:evenodd;image-rendering:optimizeQuality;shape-rendering:geometricPrecision;text-rendering:geometricPrecision"
           transform="matrix(0.01351845,0,0,0.01351845,-39.787083,146.67849)" />
        <polygon
           class="fil1"
           points="4002.59,14897.37 4002.59,15507.8 6821.6,15360.76 6120.99,14897.37 4972.34,14897.37 "
           id="polygon981"
           style="clip-rule:evenodd;fill-rule:evenodd;image-rendering:optimizeQuality;shape-rendering:geometricPrecision;text-rendering:geometricPrecision"
           transform="matrix(0.01351845,0,0,0.01351845,-39.787083,146.67849)" />
        <polygon
           class="fil6"
           points="6821.6,15360.76 6120.99,15396.55 6120.99,14897.37 "
           id="polygon983"
           style="clip-rule:evenodd;image-rendering:optimizeQuality;shape-rendering:geometricPrecision;text-rendering:geometricPrecision"
           transform="matrix(0.01351845,0,0,0.01351845,-39.787083,146.67849)" />
        <polygon
           class="fil7"
           points="4002.59,14897.37 4860.44,14897.37 4859.62,15462.75 4002.59,15507.8 "
           id="polygon985"
           style="clip-rule:evenodd;fill-rule:evenodd;image-rendering:optimizeQuality;shape-rendering:geometricPrecision;text-rendering:geometricPrecision"
           transform="matrix(0.01351845,0,0,0.01351845,-39.787083,146.67849)" />
        <polygon
           class="fil1"
           points="4002.59,14897.37 4002.59,15507.12 3316.12,15543.85 "
           id="polygon987"
           style="clip-rule:evenodd;fill-rule:evenodd;image-rendering:optimizeQuality;shape-rendering:geometricPrecision;text-rendering:geometricPrecision"
           transform="matrix(0.01351845,0,0,0.01351845,-39.787083,146.67849)" />
        <rect
           class="fil9"
           x="11.537603"
           y="346.79453"
           width="15.893506"
           height="1.2733028"
           id="rect989"
           style="clip-rule:evenodd;fill-rule:evenodd;stroke-width:0.0135184;image-rendering:optimizeQuality;shape-rendering:geometricPrecision;text-rendering:geometricPrecision" />
      </g>
      <text
         xml:space="preserve"
         style="font-style:normal;font-weight:normal;font-size:12.5064px;line-height:1.25;font-family:sans-serif;clip-rule:evenodd;fill:#0c5371;fill-opacity:1;fill-rule:evenodd;stroke:none;stroke-width:0.31266;image-rendering:optimizeQuality;shape-rendering:geometricPrecision;text-rendering:geometricPrecision"
         x="47.594601"
         y="208.38399"
         id="text995"
         transform="scale(1.143974,0.87414575)"><tspan
           sodipodi:role="line"
           id="tspan993"
           style="font-style:normal;font-variant:normal;font-weight:normal;font-stretch:normal;font-family:Roboto;-inkscape-font-specification:Roboto;fill:#0c5371;fill-opacity:1;stroke-width:0.31266"
           x="47.594601"
           y="208.38399">www.helyx.ml</tspan></text>
    </g>
    <g
       id="g1161"
       transform="matrix(1.3333333,0,0,1.3333333,-279.18819,-37.947003)">
      <circle
         style="fill:#ffffff;fill-opacity:1;stroke:#b96ee8;stroke-width:1.57179;stroke-miterlimit:4;stroke-dasharray:none;stroke-opacity:1"
         id="path1150"
         cx="105"
         cy="148.5"
         r="78.589104" />
      <g
         id="g1146"
         transform="matrix(3.3048646,0,0,2.6072204,-309.18086,-291.33622)">
        <polygon
           class="fil0"
           points="17785.17,16495.32 17785.17,15409.42 16905.87,14804.17 17785.17,14200.02 17785.17,13204.67 16117.94,14261.08 14582.82,13204.67 14582.82,14290.82 15328.36,14804.17 14582.82,15316.29 14582.82,16400.94 16116.26,15346.52 "
           id="polygon1065"
           style="clip-rule:evenodd;fill-rule:evenodd;image-rendering:optimizeQuality;shape-rendering:geometricPrecision;text-rendering:geometricPrecision"
           transform="matrix(0.01,0,0,0.01,-36.51534,20.199288)" />
        <polygon
           class="fil1"
           points="15328.36,14804.17 14582.82,15316.29 14582.82,16400.93 15229.39,15955.99 15229.39,15956.35 16116.26,15346.52 16911.58,14808.1 16905.87,14804.17 17785.17,14200.02 17785.17,13204.68 17138.59,13614.36 16118.01,14261.03 "
           id="polygon1067"
           style="clip-rule:evenodd;fill-rule:evenodd;image-rendering:optimizeQuality;shape-rendering:geometricPrecision;text-rendering:geometricPrecision"
           transform="matrix(0.01,0,0,0.01,-36.51534,20.199288)" />
        <polygon
           class="fil2"
           points="17138.59,13170.9 17138.59,13086.74 17138.59,12820.38 17785.17,13204.68 17138.59,13649.62 "
           id="polygon1069"
           style="clip-rule:evenodd;fill:url(#linearGradient1103);fill-rule:evenodd;image-rendering:optimizeQuality;shape-rendering:geometricPrecision;text-rendering:geometricPrecision"
           transform="matrix(0.01,0,0,0.01,-36.51534,20.199288)" />
        <polygon
           class="fil3"
           points="15229.4,16434.71 15229.4,16518.87 15229.4,16785.23 14582.82,16400.93 15229.4,15955.99 "
           id="polygon1071"
           style="clip-rule:evenodd;fill:url(#linearGradient1105);fill-rule:evenodd;image-rendering:optimizeQuality;shape-rendering:geometricPrecision;text-rendering:geometricPrecision"
           transform="matrix(0.01,0,0,0.01,-36.51534,20.199288)" />
        <polygon
           class="fil4"
           points="15229.39,13170.9 15229.39,13086.74 15229.39,12820.38 14582.82,13204.68 15229.39,13649.62 "
           id="polygon1073"
           style="clip-rule:evenodd;fill:url(#linearGradient1107);fill-rule:evenodd;image-rendering:optimizeQuality;shape-rendering:geometricPrecision;text-rendering:geometricPrecision"
           transform="matrix(0.01,0,0,0.01,-36.51534,20.199288)" />
        <polygon
           class="fil5"
           points="17138.59,16529.1 17138.59,16613.26 17138.59,16879.62 17785.17,16495.32 17138.59,16050.38 "
           id="polygon1075"
           style="clip-rule:evenodd;fill:url(#linearGradient1109);fill-rule:evenodd;image-rendering:optimizeQuality;shape-rendering:geometricPrecision;text-rendering:geometricPrecision"
           transform="matrix(0.01,0,0,0.01,-36.51534,20.199288)" />
        <polygon
           class="fil7"
           points="16116.26,15346.52 15328.36,14804.17 16118.01,14261.03 16911.58,14808.1 "
           id="polygon1079"
           style="clip-rule:evenodd;fill-rule:evenodd;image-rendering:optimizeQuality;shape-rendering:geometricPrecision;text-rendering:geometricPrecision"
           transform="matrix(0.01,0,0,0.01,-36.51534,20.199288)" />
      </g>
    </g>
  </g>
</svg>
